<svg xmlns="http://www.w3.org/2000/svg" version="1.1" xmlns:xlink="http://www.w3.org/1999/xlink" xmlns:svgjs="http://svgjs.dev/svgjs" width="1500" height="1500" viewBox="0 0 1500 1500"><rect width="1500" height="1500" fill="#ffffff"></rect><g transform="matrix(0.6666666666666666,0,0,0.6666666666666666,249.39393939393938,438.5856950067477)"><svg viewBox="0 0 396 247" data-background-color="#ffffff" preserveAspectRatio="xMidYMid meet" height="935" width="1500" xmlns="http://www.w3.org/2000/svg" xmlns:xlink="http://www.w3.org/1999/xlink"><g id="tight-bounds" transform="matrix(1,0,0,1,0.2400000000000091,-0.09999999999999432)"><svg viewBox="0 0 395.52 247.2" height="247.2" width="395.52"><g><svg></svg></g><g><svg viewBox="0 0 395.52 247.2" height="247.2" width="395.52"><g transform="matrix(1,0,0,1,75.54432,78.0484584116085)"><svg viewBox="0 0 244.43135999999998 91.103083176783" height="91.103083176783" width="244.43135999999998"><g><svg viewBox="0 0 244.43135999999998 91.103083176783" height="91.103083176783" width="244.43135999999998"><g><svg viewBox="0 0 244.43135999999998 91.103083176783" height="91.103083176783" width="244.43135999999998"><g><svg viewBox="0 0 244.43135999999998 91.103083176783" height="91.103083176783" width="244.43135999999998"><g id="textblocktransform"><svg viewBox="0 0 244.43135999999998 91.103083176783" height="91.103083176783" width="244.43135999999998" id="textblock"><g><svg viewBox="0 0 244.43135999999998 49.136649833546734" height="49.136649833546734" width="244.43135999999998"><g transform="matrix(1,0,0,1,0,0)"><svg width="244.43135999999998" viewBox="3.25 -38.7 195.23 39.25" height="49.136649833546734" data-palette-color="#ed0509"><path d="M12.2-34.85L18.5-15.6 19-15.6 26.3-34.6 33.2-34.4 33.4-12.9 34.35 0 27.6 0 27.85-13 27.3-26.15 21.3-9.6 15.15-9.3 9.55-26.15 9.1-13 9.45 0 3.25 0 3.95-12.15 4.25-33.6 12.2-34.85ZM49.25-5.1L49.25-5.1Q50.7-5.1 52.3-5.85 53.9-6.6 54.8-7.35L54.8-7.35 55.7-8.1 58-5.3Q57.5-4.45 56.45-3.35 55.4-2.25 54.32-1.48 53.25-0.7 51.47-0.08 49.7 0.55 47.8 0.55L47.8 0.55Q43.75 0.55 41.2-2.53 38.65-5.6 38.65-10.45L38.65-10.45Q38.65-16.55 42.2-21.15 45.75-25.75 50.5-25.75L50.5-25.75Q54.15-25.75 56.17-23.7 58.2-21.65 58.2-17.95L58.2-17.95Q58.2-15.75 57.45-12.95L57.45-12.95 56.45-11.9 43.95-10.75Q44.8-5.1 49.25-5.1ZM49.25-20.6L49.25-20.6Q47.05-20.6 45.55-18.82 44.05-17.05 43.8-14.3L43.8-14.3 52.3-15.35Q52.45-16.5 52.45-17.25L52.45-17.25Q52.45-20.6 49.25-20.6ZM75.75-4.9L75.75-4.9Q71.85 0 69 0L69 0Q65.45 0 63.17-2.9 60.9-5.8 60.9-10.35L60.9-10.35Q60.9-16.6 64.37-20.9 67.85-25.2 72.9-25.2L72.9-25.2 75.7-24.8 75.7-25.75 75.1-37.45 81.95-38.7 81.3-13 81.3-8.6Q81.3-5.6 82.8-1.7L82.8-1.7 77.4 0.55Q75.95-2.45 75.75-4.9ZM66.5-12.95Q66.5-9.75 67.67-7.95 68.85-6.15 71.07-6.15 73.3-6.15 75.7-7.95L75.7-7.95 75.7-18.75Q72.7-19.35 71.25-19.35L71.25-19.35Q69-19.35 67.75-17.75 66.5-16.15 66.5-12.95ZM87.64-24.2L94.34-25.45 93.74-13 94.29-1.25 87.59 0 88.19-12.15 87.64-24.2ZM87.29-32.77Q87.29-34.45 88.59-35.77 89.89-37.1 91.59-37.1 93.29-37.1 94.19-36.18 95.09-35.25 95.09-33.4 95.09-31.55 93.82-30.23 92.54-28.9 90.87-28.9 89.19-28.9 88.24-30 87.29-31.1 87.29-32.77ZM108.44-19.25Q106.24-19.25 105.04-17.68 103.84-16.1 103.84-12.85 103.84-9.6 105.07-7.63 106.29-5.65 108.64-5.65L108.64-5.65Q109.84-5.65 110.99-6.4 112.14-7.15 112.74-7.9L112.74-7.9 113.29-8.7 115.79-6.1Q115.64-5.85 115.42-5.4 115.19-4.95 114.32-3.8 113.44-2.65 112.47-1.78 111.49-0.9 109.94-0.18 108.39 0.55 106.69 0.55L106.69 0.55Q102.94 0.55 100.59-2.5 98.24-5.55 98.24-10.45L98.24-10.45Q98.24-16.55 101.79-21.15 105.34-25.75 110.09-25.75L110.09-25.75Q111.54-25.75 112.99-25.33 114.44-24.9 115.94-24L115.94-24 112.44-17.85Q110.64-19.25 108.44-19.25ZM135.39-19.25Q133.19-19.25 131.99-17.68 130.79-16.1 130.79-12.85 130.79-9.6 132.01-7.63 133.24-5.65 135.59-5.65L135.59-5.65Q136.79-5.65 137.94-6.4 139.09-7.15 139.69-7.9L139.69-7.9 140.24-8.7 142.74-6.1Q142.59-5.85 142.36-5.4 142.14-4.95 141.26-3.8 140.39-2.65 139.41-1.78 138.44-0.9 136.89-0.18 135.34 0.55 133.64 0.55L133.64 0.55Q129.89 0.55 127.54-2.5 125.19-5.55 125.19-10.45L125.19-10.45Q125.19-16.55 128.74-21.15 132.29-25.75 137.04-25.75L137.04-25.75Q138.49-25.75 139.94-25.33 141.39-24.9 142.89-24L142.89-24 139.39-17.85Q137.59-19.25 135.39-19.25ZM145.48-24.15L145.48-24.15 151.53-25.45Q151.98-21.6 152.13-18.15L152.13-18.15Q156.68-25.2 160.68-25.2L160.68-25.2 160.13-17.4Q157.23-17.4 155.56-16.88 153.88-16.35 152.13-14.8L152.13-14.8 152.13-13 152.68-1.25 145.98 0 146.58-12.15Q146.38-18.85 145.48-24.15ZM178.33-12.65Q178.33-16.1 177.73-17.25 177.13-18.4 174.93-18.4 172.73-18.4 169.93-16.65L169.93-16.65 169.93-13 170.48-1.25 163.78 0 164.38-12.15Q164.18-18.85 163.28-24.15L163.28-24.15 169.33-25.45Q169.68-22.55 169.83-19.8L169.83-19.8Q170.58-20.8 171.53-21.78 172.48-22.75 174.53-23.98 176.58-25.2 178.68-25.2 180.78-25.2 182.23-23.85 183.68-22.5 184.08-20.15L184.08-20.15Q188.23-25.2 192.48-25.2L192.48-25.2Q195.13-25.2 196.68-23.43 198.23-21.65 198.23-18.6L198.23-18.6 197.93-13 198.48-1 191.73 0.25 192.33-12.65Q192.33-16.1 191.73-17.25 191.13-18.4 188.98-18.4 186.83-18.4 184.13-16.75L184.13-16.75 183.93-13 184.48-1 177.73 0.25 178.33-12.65Z" opacity="1" transform="matrix(1,0,0,1,0,0)" fill="#ed0509" class="wordmark-text-0" data-fill-palette-color="primary" id="text-0"></path></svg></g></svg></g><g transform="matrix(1,0,0,1,0,60.73663357965111)"><svg viewBox="0 0 244.43135999999998 30.36644959713188" height="30.36644959713188" width="244.43135999999998"><g transform="matrix(1,0,0,1,0,0)"><svg width="244.43135999999998" viewBox="-3.5 -46.45 398.04 49.45" height="30.36644959713188" data-palette-color="#ed051b"><path d="M43.2-37.1L43.2-37.1Q40.6-33.35 37.4-27.6 34.2-21.85 32.3-17.95L32.3-17.95 30.4-14.05Q25.25-3.35 25.25 1.3L25.25 1.3Q25.25 1.4 25.28 1.7 25.3 2 25.3 2.2L25.3 2.2Q25.3 3 24.85 3L24.85 3Q24 3 23 1.53 22 0.05 22-2.4L22-2.4Q22-4.65 23.08-7.9 24.15-11.15 26.25-15.33 28.35-19.5 29.78-22.05 31.2-24.6 33.55-28.7L33.55-28.7Q33.7-29 33.7-29.15L33.7-29.15Q33.6-29.4 33.45-29.4L33.45-29.4Q33.15-29.4 32.85-29.15L32.85-29.15Q29.9-26.75 25.1-21 20.3-15.25 17-10.7L17-10.7 13.65-6.15Q12.85-4.95 12.35-4.95L12.35-4.95Q12.2-4.95 12.1-5.05 12-5.15 11.95-5.33 11.9-5.5 11.88-5.65 11.85-5.8 11.85-5.9L11.85-5.9 11.85-6Q12.2-9.1 12.88-14.65 13.55-20.2 14-24 14.45-27.8 14.45-27.9L14.45-27.9Q14.45-28.4 14.25-28.4L14.25-28.4Q14.15-28.4 13.98-28.25 13.8-28.1 13.7-27.95L13.7-27.95 13.6-27.8Q11.45-24.6 9-19.53 6.55-14.45 5.05-10.55L5.05-10.55Q3.95-7.75 2.8-5.43 1.65-3.1 0.78-1.83-0.1-0.55-0.83 0.33-1.55 1.2-1.95 1.5L-1.95 1.5-2.35 1.8Q-2.9 2.25-3.2 2.25-3.5 2.25-3.5 1.75L-3.5 1.75-3.45 1.3Q-2.95-1.35 0.93-8.8 4.8-16.25 8.45-22.4L8.45-22.4 12.1-28.5 14.85-33.25Q16.9-39.1 18-39.1L18-39.1Q18.75-39.1 18.75-36.55L18.75-36.55Q17.2-17.95 17.2-15.3L17.2-15.3Q17.2-14.55 17.5-14.55 17.8-14.55 18.2-15.1L18.2-15.1Q18.85-15.95 20-17.4 21.15-18.85 24.4-22.6 27.65-26.35 30.53-29.35 33.4-32.35 36.8-35.1 40.2-37.85 42.4-38.45L42.4-38.45Q42.9-38.55 43.05-38.55L43.05-38.55Q43.65-38.55 43.65-38.1L43.65-38.1Q43.65-37.7 43.2-37.1ZM72.27-16.95L72.27-16.95Q72.87-18.2 72.87-19.15L72.87-19.15Q72.87-19.95 72.37-19.95L72.37-19.95Q72.07-19.95 71.7-19.78 71.32-19.6 71.12-19.4L71.12-19.4 70.87-19.2Q69.32-17.85 67-14.28 64.67-10.7 64.67-9.7L64.67-9.7Q64.67-9.5 64.77-9.5L64.77-9.5Q65.07-9.5 66.1-10 67.12-10.5 69.05-12.35 70.97-14.2 72.27-16.95ZM70.02-5.5L70.02-5.5Q72.67-7.95 77.62-13.6L77.62-13.6Q77.77-13.75 77.87-13.75 77.97-13.75 77.97-13.55L77.97-13.55Q77.97-12.6 77.22-11.7L77.22-11.7Q73.52-7.6 70.67-4.85L70.67-4.85Q68.57-2.75 65.67-0.83 62.77 1.1 60.87 1.1L60.87 1.1Q58.57 1.1 58.57-2.1L58.57-2.1Q58.57-7.4 62.5-13.2 66.42-19 71.57-21.05L71.57-21.05Q73.72-21.95 75.47-21.95L75.47-21.95Q77.42-21.95 77.42-20.4L77.42-20.4Q77.42-17.5 73.32-13.75 69.22-10 64.12-8.05L64.12-8.05Q63.92-8 63.77-7.7L63.77-7.7Q63.02-5.65 63.02-4.05L63.02-4.05Q63.02-2.25 64.37-2.25L64.37-2.25Q66.52-2.25 70.02-5.5ZM108.15-5.35L108.15-5.35Q108.45-5.6 108.97-6.08 109.5-6.55 111-8.08 112.5-9.6 113.87-11.23 115.25-12.85 116.92-15.25 118.6-17.65 119.8-20L119.8-20Q119.85-20.1 119.85-20.2L119.85-20.2 119.8-20.35Q119.45-20.55 119-20.55L119-20.55Q116.85-20.55 113.67-17.35 110.5-14.15 108.27-10.48 106.05-6.8 106.05-5.2L106.05-5.2Q106.05-4.5 106.6-4.5L106.6-4.5Q107.2-4.5 108.15-5.35ZM119.2-7.55L119.2-7.55Q121.3-9.65 124.75-13.6L124.75-13.6Q124.9-13.75 125-13.75 125.1-13.75 125.1-13.55L125.1-13.55Q125.1-12.6 124.35-11.7L124.35-11.7Q120.65-7.6 117.8-4.85L117.8-4.85Q111.9 0.65 110.05 0.65L110.05 0.65Q109.35 0.65 109.35-0.1L109.35-0.1Q109.35-1.05 110.3-3.1 111.25-5.15 112.25-6.75L112.25-6.75 113.2-8.35Q113.4-8.6 113.4-8.8L113.4-8.8Q113.4-8.9 113.3-8.9L113.3-8.9Q113.1-8.9 112.75-8.55L112.75-8.55Q111.2-6.75 109.2-4.85 107.2-2.95 105.95-1.9L105.95-1.9 104.75-0.9Q102.75 0.65 101.75 0.65L101.75 0.65 101.55 0.6Q100.7 0.55 100.7-0.9L100.7-0.9Q100.7-4.7 103.37-9.58 106.05-14.45 110.3-18.05 114.55-21.65 118.5-21.65L118.5-21.65Q118.9-21.65 119.25-21.58 119.6-21.5 119.77-21.45 119.95-21.4 120.1-21.3L120.1-21.3 120.25-21.25Q120.35-21.25 120.5-21.4L120.5-21.4Q129.75-38.1 134.7-44.45L134.7-44.45Q136.2-46.45 136.85-46.45L136.85-46.45Q137.1-46.45 137.1-46.05L137.1-46.05Q137.1-45 135.5-41.75L135.5-41.75Q127.8-27.65 124.7-22.2L124.7-22.2Q119.15-12.3 117.95-10.3L117.95-10.3Q115.5-6.1 115.5-5.2L115.5-5.2Q115.5-4.85 115.8-4.85L115.8-4.85Q116.05-4.85 116.37-5.03 116.7-5.2 117.1-5.55 117.5-5.9 117.82-6.2 118.15-6.5 118.6-6.95 119.05-7.4 119.2-7.55ZM155.47-4.85L155.47-4.85Q149.62 0.65 147.97 0.65L147.97 0.65Q147.12 0.65 147.12-0.5 147.12-1.65 148.02-3.85 148.92-6.05 149.82-7.7L149.82-7.7 150.72-9.3Q154.52-15.95 156.47-18.85L156.47-18.85Q157.32-20.1 158.65-20.98 159.97-21.85 161.12-21.85L161.12-21.85Q161.52-21.85 161.52-21.5L161.52-21.5Q161.52-21.25 161.17-20.55L161.17-20.55Q160.57-19.45 158.22-15.3 155.87-11.15 155.42-10.3L155.42-10.3Q153.37-6.7 153.37-5.5L153.37-5.5Q153.37-5.05 153.67-5.05L153.67-5.05Q154.17-5.05 156.87-7.55L156.87-7.55Q158.97-9.65 162.42-13.6L162.42-13.6Q162.57-13.75 162.67-13.75 162.77-13.75 162.77-13.55L162.77-13.55Q162.77-12.6 162.02-11.7L162.02-11.7Q158.32-7.6 155.47-4.85ZM162.12-24.7L162.12-24.7Q160.87-24.7 160.87-26.2L160.87-26.2Q160.87-27.6 161.92-29.03 162.97-30.45 164.22-30.45L164.22-30.45Q165.72-30.45 165.72-28.75L165.72-28.75Q165.72-27.35 164.57-26.03 163.42-24.7 162.12-24.7ZM198.45-4.85L198.45-4.85Q196.2-2.7 193.37-0.83 190.55 1.05 188.6 1.05L188.6 1.05Q186.3 1.05 186.3-2.5L186.3-2.5Q186.3-6.25 188.95-10.83 191.6-15.4 195.67-18.65 199.75-21.9 203.4-21.9L203.4-21.9Q205.35-21.9 205.35-20.45L205.35-20.45Q205.35-17.95 202.1-14.8L202.1-14.8Q201.8-14.5 200.8-13.75 199.8-13 199.4-13L199.4-13Q199.15-13 199.15-13.25L199.15-13.25 199.3-13.7Q201.3-17.25 201.3-19.1L201.3-19.1Q201.3-20.1 200.65-20.1L200.65-20.1Q199.1-20.1 196.72-17.07 194.35-14.05 192.6-10.18 190.85-6.3 190.85-4.05L190.85-4.05Q190.85-2.25 192.15-2.25L192.15-2.25Q194.4-2.25 197.8-5.5L197.8-5.5Q200.45-7.95 205.4-13.6L205.4-13.6Q205.55-13.75 205.65-13.75 205.75-13.75 205.75-13.55L205.75-13.55Q205.75-12.6 205-11.7L205-11.7Q201.3-7.6 198.45-4.85ZM289.99-12L289.99-12Q288.69-9.8 286.87-7.58 285.04-5.35 282.74-3.28 280.44-1.2 277.69 0.1 274.94 1.4 272.34 1.4L272.34 1.4Q268.19 1.4 268.19-4.8L268.19-4.8Q268.19-12.65 272.77-21.25 277.34-29.85 284.44-35.3L284.44-35.3Q284.89-35.65 285.67-36.13 286.44-36.6 288.57-37.43 290.69-38.25 292.44-38.25L292.44-38.25Q293.79-38.25 294.79-37.85L294.79-37.85Q294.89-37.8 295.04-37.8L295.04-37.8Q295.39-37.8 295.59-38.15L295.59-38.15Q296.64-39 298.94-39L298.94-39 299.34-39Q300.04-39 300.04-38.3L300.04-38.3Q300.04-37.2 298.42-34.8 296.79-32.4 295.39-30.75 293.99-29.1 292.89-27.9L292.89-27.9Q291.04-25.95 290.29-25.95L290.29-25.95Q289.94-25.95 289.94-26.45L289.94-26.45Q289.94-28.2 292.79-33.3L292.79-33.3Q292.84-33.4 293.29-34.1 293.74-34.8 293.94-35.27 294.14-35.75 294.14-36.15L294.14-36.15Q294.14-37 292.79-37L292.79-37Q291.69-37 290.37-36.3 289.04-35.6 288.29-34.9L288.29-34.9 287.49-34.2Q282.19-29.3 277.92-21.28 273.64-13.25 273.64-6.7L273.64-6.7Q273.64-1.95 276.64-1.95L276.64-1.95Q277.04-1.95 277.57-2.05 278.09-2.15 279.37-2.73 280.64-3.3 281.87-4.33 283.09-5.35 284.72-7.48 286.34-9.6 287.79-12.45L287.79-12.45Q288.19-13.25 288.84-14.73 289.49-16.2 289.87-16.9 290.24-17.6 290.49-17.6L290.49-17.6Q290.84-17.6 291.04-16.98 291.24-16.35 291.24-15.9L291.24-15.9Q291.24-14.05 289.99-12ZM329.82-10.35L329.82-10.35Q329.42-10.35 329.42-10.65L329.42-10.65Q329.42-10.8 329.57-11.05L329.57-11.05Q332.52-15.65 332.52-17.35L332.52-17.35Q332.52-17.8 332.17-17.8L332.17-17.8Q330.67-17.8 325.12-11L325.12-11Q323.47-8.9 322.04-6.65 320.62-4.4 320.07-3.2L320.07-3.2 319.47-2.05Q318.87-0.85 317.62 0.18 316.37 1.2 315.02 1.2L315.02 1.2Q314.32 1.2 314.32 0.85L314.32 0.85Q314.32 0.55 314.74-0.4 315.17-1.35 315.77-2.5 316.37-3.65 316.97-4.75 317.57-5.85 317.97-6.6L317.97-6.6 318.42-7.35 323.67-16.5Q326.72-22.25 330.07-22.25L330.07-22.25Q330.52-22.25 330.52-21.9L330.52-21.9Q330.52-21.45 328.34-18.18 326.17-14.9 325.82-14L325.82-14Q325.72-13.7 325.72-13.65L325.72-13.65Q325.72-13.55 325.82-13.55 325.92-13.55 326.17-13.8L326.17-13.8Q329.92-18.05 334.12-21.35L334.12-21.35Q334.37-21.6 335.22-22.08 336.07-22.55 336.72-22.55L336.72-22.55Q337.67-22.55 337.67-20.9L337.67-20.9Q337.67-19.1 336.47-16.6 335.27-14.1 333.22-12.2L333.22-12.2 333.02-12Q332.82-11.85 332.59-11.68 332.37-11.5 332.02-11.25 331.67-11 331.32-10.83 330.97-10.65 330.57-10.5 330.17-10.35 329.82-10.35ZM388.64-7.55L388.64-7.55Q390.74-9.65 394.19-13.6L394.19-13.6Q394.34-13.75 394.44-13.75 394.54-13.75 394.54-13.55L394.54-13.55Q394.54-12.6 393.79-11.7L393.79-11.7Q390.09-7.6 387.24-4.85L387.24-4.85Q381.34 0.65 379.49 0.65L379.49 0.65Q378.69 0.65 378.69-0.3 378.69-1.25 379.72-3.45 380.74-5.65 381.77-7.45 382.79-9.25 384.37-11.85 385.94-14.45 386.04-14.65L386.04-14.65Q386.94-16.1 386.94-16.5L386.94-16.5Q386.94-16.75 386.69-16.75L386.69-16.75 385.99-16.5Q383.69-14.85 380.49-11.38 377.29-7.9 375.24-5.3L375.24-5.3 373.19-2.65Q370.89 0.65 368.69 0.65L368.69 0.65Q368.04 0.65 368.04 0.25L368.04 0.25Q368.04-0.2 368.99-2.13 369.94-4.05 370.89-5.75L370.89-5.75 371.84-7.45Q372.19-8.15 373.57-10.48 374.94-12.8 375.87-14.48 376.79-16.15 376.79-16.55L376.79-16.55Q376.79-16.8 376.59-16.8L376.59-16.8 375.89-16.5Q373.54-14.85 370.34-11.38 367.14-7.9 365.14-5.3L365.14-5.3 363.09-2.65Q360.74 0.6 358.59 0.6L358.59 0.6Q357.94 0.6 357.94 0.25L357.94 0.25Q357.94-0.2 358.89-2.13 359.84-4.05 360.79-5.75L360.79-5.75 361.74-7.45 366.59-16.05Q367.79-18.3 369.49-20.08 371.19-21.85 373.04-21.85L373.04-21.85Q373.44-21.85 373.44-21.5L373.44-21.5Q373.44-21.2 372.87-20.23 372.29-19.25 371.22-17.53 370.14-15.8 369.39-14.35L369.39-14.35Q368.94-13.5 368.32-12.43 367.69-11.35 367.29-10.63 366.89-9.9 366.74-9.6 366.59-9.3 366.59-9.15L366.59-9.15Q366.59-9.05 366.69-9.05L366.69-9.05Q366.84-9.05 367.19-9.4L367.19-9.4Q368.14-10.5 369.67-12.15 371.19-13.8 374.84-17.13 378.49-20.45 380.84-21.6L380.84-21.6Q381.34-21.85 381.84-21.85L381.84-21.85Q382.54-21.85 382.54-21.15L382.54-21.15Q382.54-19.85 379.59-14.4L379.59-14.4Q379.34-13.95 378.57-12.65 377.79-11.35 377.27-10.4 376.74-9.45 376.74-9.2L376.74-9.2Q376.74-9.05 376.84-9.05L376.84-9.05Q376.99-9.05 377.34-9.4L377.34-9.4Q378.29-10.5 379.82-12.15 381.34-13.8 384.97-17.13 388.59-20.45 390.94-21.6L390.94-21.6Q391.54-21.85 391.99-21.85L391.99-21.85Q392.74-21.85 392.74-21.15L392.74-21.15Q392.74-20.95 392.54-20.28 392.34-19.6 391.39-17.53 390.44-15.45 388.89-12.95L388.89-12.95Q385.09-7.1 385.09-5.6L385.09-5.6Q385.09-5.15 385.39-5.15L385.39-5.15Q386.24-5.15 388.64-7.55Z" opacity="1" transform="matrix(1,0,0,1,0,0)" fill="#ed051b" class="slogan-text-1" data-fill-palette-color="secondary" id="text-1"></path></svg></g></svg></g></svg></g></svg></g></svg></g></svg></g></svg></g><g><path d="M245.816 0c68.262 0 123.6 55.338 123.6 123.6 0 68.262-55.338 123.6-123.6 123.6-49.941 0-92.964-29.619-112.461-72.248l2.442 0c19.343 41.371 61.334 70.033 110.019 70.032 67.039 0 121.384-54.346 121.384-121.384 0-67.039-54.346-121.384-121.384-121.384-48.685 0-90.676 28.662-110.019 70.032l-2.442 0c19.497-42.63 62.52-72.248 112.461-72.248z" fill="#ec4104" stroke="transparent" data-fill-palette-color="tertiary"></path></g></svg></g><defs></defs></svg><rect width="395.52" height="247.2" fill="none" stroke="none" visibility="hidden"></rect></g></svg></g></svg>